<svg width="336" height="186" viewBox="0 0 336 186" fill="none" xmlns="http://www.w3.org/2000/svg">
<path d="M313.999 168C313.999 87.3662 248.633 22 168 22C87.3662 22 22 87.3662 22 168" stroke="#F83225" stroke-width="43"/>
<path d="M313.999 168C313.999 87.3662 248.633 22 167.999 22C119.335 22 76.2323 45.8089 49.7031 82.4136" stroke="#F87125" stroke-width="43"/>
<path d="M313.985 168C313.985 87.3662 248.619 22 167.986 22C152.174 22 136.949 24.5135 122.689 29.1629" stroke="#FDC432" stroke-width="43"/>
<path d="M313.986 168C313.986 103.178 271.742 48.2235 213.283 29.1633" stroke="#99D815" stroke-width="43"/>
<path d="M314.013 167.999C314.013 135.751 303.557 105.944 285.851 81.7843" stroke="#5BB449" stroke-width="43"/>
<path d="M294.182 125.582L170.631 182.283L165.761 170.169L294.182 125.582Z" fill="#272525"/>
<path d="M173.617 181.693C169.019 183.541 164.107 182.092 162.646 178.457C161.185 174.822 163.727 170.376 168.325 168.528C172.923 166.68 177.835 168.129 179.296 171.764C180.757 175.399 178.215 179.844 173.617 181.693Z" fill="#272525"/>
</svg>
