<svg width="336" height="180" viewBox="0 0 336 180" fill="none" xmlns="http://www.w3.org/2000/svg">
<path d="M313.999 168C313.999 87.3662 248.633 22 168 22C87.3662 22 22 87.3662 22 168" stroke="#F83225" stroke-width="43"/>
<path d="M313.999 168C313.999 87.3662 248.633 22 167.999 22C119.335 22 76.2323 45.8089 49.7031 82.4136" stroke="#F87125" stroke-width="43"/>
<path d="M313.985 168C313.985 87.3662 248.619 22 167.986 22C152.174 22 136.949 24.5135 122.689 29.1629" stroke="#FDC432" stroke-width="43"/>
<path d="M313.986 168C313.986 103.178 271.742 48.2235 213.283 29.1633" stroke="#99D815" stroke-width="43"/>
<path d="M314.013 167.999C314.013 135.751 303.557 105.944 285.851 81.7843" stroke="#5BB449" stroke-width="43"/>
<path d="M239.163 59.0192L167.614 174.607L156.856 167.211L239.163 59.0192Z" fill="#272525"/>
<path d="M169.775 172.464C166.967 176.547 162.074 178.058 158.846 175.838C155.617 173.618 155.276 168.509 158.083 164.425C160.891 160.342 165.784 158.831 169.013 161.051C172.241 163.271 172.582 168.38 169.775 172.464Z" fill="#272525"/>
</svg>
