<svg width="336" height="177" viewBox="0 0 336 177" fill="none" xmlns="http://www.w3.org/2000/svg">
<path d="M313.999 168C313.999 87.3662 248.633 22 168 22C87.3662 22 22 87.3662 22 168" stroke="#F83225" stroke-width="43"/>
<path d="M313.999 168C313.999 87.3662 248.633 22 167.999 22C119.335 22 76.2323 45.8089 49.7031 82.4136" stroke="#F87125" stroke-width="43"/>
<path d="M313.985 168C313.985 87.3662 248.619 22 167.986 22C152.174 22 136.949 24.5135 122.689 29.1629" stroke="#FDC432" stroke-width="43"/>
<path d="M313.986 168C313.986 103.178 271.742 48.2235 213.283 29.1633" stroke="#99D815" stroke-width="43"/>
<path d="M314.013 167.999C314.013 135.751 303.557 105.944 285.851 81.7843" stroke="#5BB449" stroke-width="43"/>
<path d="M81.8767 63.929L174.432 163.495L164.454 171.915L81.8767 63.929Z" fill="#272525"/>
<path d="M172.936 160.844C176.132 164.632 176.295 169.75 173.3 172.277C170.306 174.803 165.288 173.782 162.092 169.994C158.897 166.207 158.733 161.089 161.728 158.562C164.722 156.035 169.74 157.057 172.936 160.844Z" fill="#272525"/>
</svg>
